<svg width="24" height="24" viewBox="0 0 24 24" fill="none" xmlns="http://www.w3.org/2000/svg">
<path fill-rule="evenodd" clip-rule="evenodd" d="M12 2.57153C9.43947 2.57153 9.11827 2.58239 8.11278 2.62827C7.10919 2.67408 6.42384 2.83345 5.82412 3.06654C5.195 3.30329 4.6251 3.67442 4.15415 4.15405C3.67441 4.62497 3.30318 5.19488 3.06635 5.82403C2.83344 6.42379 2.67408 7.10915 2.62846 8.11275C2.58239 9.11826 2.57153 9.43946 2.57153 12.0001C2.57153 14.5608 2.58239 14.882 2.62846 15.8875C2.67427 16.8911 2.83363 17.5764 3.06672 18.1762C3.30347 18.8053 3.6746 19.3752 4.15422 19.8462C4.62517 20.3258 5.19508 20.6969 5.82419 20.9337C6.42395 21.1668 7.10931 21.3261 8.11286 21.3719C9.11851 21.4178 9.43959 21.4287 12.0002 21.4287C14.5608 21.4287 14.882 21.4178 15.8875 21.3719C16.8911 21.3261 17.5765 21.1668 18.1762 20.9337C19.4427 20.4438 20.4439 19.4426 20.9337 18.1762C21.1668 17.5764 21.3261 16.8911 21.3719 15.8875C21.4178 14.8818 21.4287 14.5607 21.4287 12.0001C21.4287 9.43949 21.4178 9.11826 21.3719 8.11275C21.3261 7.10915 21.1668 6.4238 20.9337 5.82407C20.6969 5.19495 20.3258 4.62504 19.8462 4.15409C19.3752 3.67436 18.8053 3.30315 18.1761 3.06635C17.5763 2.83345 16.891 2.67408 15.8874 2.62846C14.8819 2.58239 14.5607 2.57153 12 2.57153ZM6.76142 12.0001C6.76142 9.10715 9.10652 6.76197 11.9993 6.76197C14.8922 6.76197 17.2373 9.10715 17.2373 12.0001C17.2373 14.893 14.8922 17.2382 11.9993 17.2382C9.10652 17.2382 6.76142 14.893 6.76142 12.0001ZM8.59368 12C8.59366 13.8804 10.1182 15.4048 11.9989 15.4048C13.8796 15.4048 15.4042 13.8805 15.4042 12.0001C15.4042 10.1197 13.8796 8.59532 11.999 8.59531C10.1183 8.59531 8.59369 10.1197 8.59368 12ZM17.332 7.88967C17.9986 7.88967 18.5389 7.35028 18.5389 6.68491C18.5389 6.01953 17.9986 5.48014 17.332 5.48014C16.6655 5.48014 16.1251 6.01953 16.1251 6.68491C16.1251 7.35028 16.6655 7.88967 17.332 7.88967Z" fill="#C7C7C9"/>
</svg>
