<svg width="24" height="24" viewBox="0 0 24 24" fill="none" xmlns="http://www.w3.org/2000/svg">
<path d="M19.768 8.39896C19.768 13.7778 15.8758 19.9822 8.76161 19.9822C6.65855 19.9833 4.59945 19.3486 2.82935 18.1535C3.13609 18.1927 3.44479 18.2126 3.75379 18.2131C5.4962 18.216 7.18882 17.6017 8.55904 16.4689C7.75194 16.4518 6.34754 15.8123 5.34081 14.8539C4.33408 13.8954 3.29006 12.2356 3.17826 10.9977H5.13292C4.6722 10.3096 4.03844 9.20776 3.75077 7.90205C3.46311 6.59634 3.71761 5.23524 4.21149 4.33911C5.13292 5.4945 6.52381 6.68824 7.8972 7.42054C9.2706 8.15284 10.5784 8.77125 12.1161 8.85246C11.9243 7.97952 12.0111 7.0644 12.3631 6.24859C12.715 5.43277 13.3126 4.76169 14.0633 4.33911C14.814 3.91653 15.6761 3.76599 16.5162 3.91075C17.3564 4.05551 18.1279 4.48751 18.7113 5.13997C19.5436 5.20093 20.2668 4.60159 21.2579 4.30509C21.2579 5.82007 20.9527 6.96171 19.7569 7.87182C19.7643 8.04624 19.768 8.22454 19.768 8.39896Z" fill="#C7C7C9" stroke="#C7C7C9" stroke-width="0.857143" stroke-linecap="round" stroke-linejoin="round"/>
</svg>
