<svg width="24" height="24" viewBox="0 0 24 24" fill="none" xmlns="http://www.w3.org/2000/svg">
<path fill-rule="evenodd" clip-rule="evenodd" d="M20.9527 5.13126C21.5508 5.81603 21.745 7.37552 21.745 7.37552C21.745 7.37552 21.9431 9.20891 21.9431 11.0379V12.752C21.9431 14.5854 21.745 16.4144 21.745 16.4144C21.745 16.4144 21.5508 17.9739 20.9527 18.6586C20.2702 19.4707 19.5152 19.5546 19.0884 19.6021C19.0415 19.6073 18.9986 19.6121 18.9602 19.6173C16.1793 19.8426 12.0002 19.8514 12.0002 19.8514C12.0002 19.8514 6.83072 19.7984 5.23831 19.6261C5.16086 19.6091 5.06653 19.596 4.95954 19.5812C4.45493 19.5112 3.66877 19.4022 3.04389 18.6586C2.44965 17.9739 2.25545 16.4144 2.25545 16.4144C2.25545 16.4144 2.05737 14.581 2.05737 12.752V11.0379C2.05737 9.20891 2.25934 7.37552 2.25934 7.37552C2.25934 7.37552 2.44965 5.81603 3.04777 5.13126C3.73023 4.31917 4.48521 4.23526 4.91206 4.18782C4.95891 4.18261 5.00181 4.17784 5.04023 4.1726C7.82112 3.94287 11.9963 3.94287 11.9963 3.94287H12.0041C12.0041 3.94287 16.1793 3.94287 18.9602 4.1726C18.9986 4.17784 19.0415 4.18261 19.0884 4.18782C19.5152 4.23526 20.2702 4.31917 20.9527 5.13126ZM9.51351 14.5329V9.26741C9.51351 8.89874 9.90072 8.65833 10.2311 8.82184L15.57 11.4637C15.9394 11.6465 15.9387 12.1737 15.5687 12.3555L10.2299 14.9791C9.89958 15.1414 9.51351 14.901 9.51351 14.5329Z" fill="#C7C7C9"/>
</svg>
